<svg width="404" height="98" viewBox="0 0 404 98" fill="none" xmlns="http://www.w3.org/2000/svg">
<circle cx="65.9991" cy="48.9991" r="48.9991" fill="#E42E2C"/>
<circle cx="65.9991" cy="48.9991" r="48.9991" fill="url(#paint0_linear_311_913)" fill-opacity="0.2" style="mix-blend-mode:multiply"/>
<path d="M89.5451 91.9094C95.4159 88.6921 100.587 84.3179 104.742 79.0533L157.754 11.9274C152.141 7.49509 145.731 4.1871 138.887 2.19235C132.044 0.197594 124.901 -0.444885 117.868 0.301623C110.835 1.04813 103.91 2.83616 97.8975 6.5431C95.2349 8.18463 94.1081 9.63089 92.2087 12.0687L92.0936 12.2165L33.8423 85.9778C38.8203 90.3504 44.6457 93.6506 50.9638 95.6775C57.282 97.7044 63.9607 98.4156 70.5935 97.7678C77.2262 97.12 83.6743 95.1268 89.5451 91.9094Z" fill="#E42E2C"/>
<path fill-rule="evenodd" clip-rule="evenodd" d="M182.901 31.9921L182.852 32.0417L182.819 32.1079C180.021 36.7758 178.333 41.3774 177.753 45.946V45.9956V93.6673C177.753 93.6673 177.753 93.8328 177.753 93.9321C177.753 94.1473 177.753 94.4784 177.753 94.4784H185.798V67.812C188.215 70.4108 190.847 72.4137 193.743 73.8372C197.219 75.509 201.026 76.3532 205.148 76.3532C212.464 76.3532 218.738 73.6717 223.919 68.3583C229.116 63.0449 231.715 56.5728 231.715 48.9916C231.715 41.5429 229.1 35.1371 223.869 29.8568C218.638 24.5765 212.332 21.9115 204.949 21.9115C200.745 21.9115 196.789 22.7226 193.081 24.3613C189.39 25.9834 185.997 28.5326 182.901 31.9921ZM213.987 32.3231C216.917 34.028 219.251 36.3951 220.989 39.4573C222.727 42.5196 223.588 45.7639 223.588 49.2234C223.588 52.6167 222.71 55.8941 220.939 59.0391C219.201 62.151 216.867 64.5677 213.904 66.2892C210.975 67.9941 207.846 68.8383 204.502 68.8383C201.109 68.8383 197.881 67.9941 194.819 66.2892C191.774 64.5512 189.44 62.2338 187.801 59.3205C186.162 56.3576 185.335 53.0636 185.335 49.4055C185.335 43.761 187.188 39.1097 190.88 35.3523C194.571 31.5948 199.073 29.7243 204.42 29.7243C207.912 29.7243 211.09 30.6016 213.987 32.3231Z" fill="#E42E2C"/>
<path d="M240.637 46.1115L240.62 46.1777V76.0222H248.847V58.2115C248.847 50.3987 249.244 45.1846 250.006 42.4534C251.032 39.3911 252.869 36.5441 255.567 33.9122C258.232 31.33 260.748 30.6679 263.198 31.5783L263.827 31.81L267.965 25.1227L267.237 24.7089C265.135 23.5006 263.099 22.855 261.146 22.855C258.514 22.855 255.352 24.1958 251.711 26.6622C247.937 29.2113 244.99 33.2005 242.805 38.547C241.845 40.5167 241.133 43.0493 240.637 46.1115Z" fill="#E42E2C"/>
<path d="M270.233 14.0325C271.425 15.2243 272.898 15.8367 274.57 15.8367C276.258 15.8367 277.715 15.2243 278.907 14.0325C280.132 12.8076 280.744 11.3344 280.744 9.64603C280.744 7.95765 280.115 6.501 278.89 5.30921C277.698 4.11742 276.242 3.52155 274.553 3.52155C272.865 3.52155 271.408 4.13399 270.217 5.32578C269.025 6.51757 268.412 7.9742 268.412 9.66257C268.445 11.3509 269.058 12.8241 270.233 14.0325Z" fill="#E42E2C"/>
<path d="M278.642 24.2124H270.548V76.1216H278.642V24.2124Z" fill="#E42E2C"/>
<path d="M293.854 24.2951H285.18L309.082 76.2043H311.267L335.02 24.2951H326.314L310.158 59.7344L293.854 24.2951Z" fill="#E42E2C"/>
<path d="M378.024 24.2951L362.332 60.5289L346.177 24.2951H337.553L357.979 70.3115L347.948 93.2535H356.555L386.731 24.2951H378.024Z" fill="#E42E2C"/>
<defs>
<linearGradient id="paint0_linear_311_913" x1="65.9991" y1="48.9991" x2="46.0728" y2="32.3394" gradientUnits="userSpaceOnUse">
<stop offset="0.157792"/>
<stop offset="0.366183" stop-opacity="0.75"/>
<stop offset="0.572837" stop-opacity="0.5"/>
<stop offset="0.801512" stop-opacity="0.25"/>
<stop offset="1" stop-opacity="0"/>
</linearGradient>
</defs>
</svg>
